<svg width="269" height="54" viewBox="0 0 269 54" fill="none" xmlns="http://www.w3.org/2000/svg">
<path d="M105.806 21.0864C105.806 14.2998 110.755 9.77539 118.186 9.77539C125.617 9.77539 130.567 14.2998 130.567 21.0864C130.567 27.873 125.617 32.3974 118.186 32.3974C110.755 32.3974 105.806 27.873 105.806 21.0864ZM124.027 21.0864C124.027 17.412 121.764 15.0676 118.179 15.0676C114.594 15.0676 112.332 17.412 112.332 21.0864C112.332 24.7539 114.594 27.1052 118.179 27.1052C121.771 27.1052 124.027 24.7539 124.027 21.0864Z" fill="white"/>
<path d="M91.5057 2.8584H75.115H69.9668V6.35453H73.0585C74.1964 6.35453 75.115 7.27312 75.115 8.41108V27.0845C75.115 29.7375 77.2607 31.8831 79.9136 31.8831H81.7714V24.0408C81.7714 22.9029 82.69 21.9843 83.8279 21.9843H91.5057C98.5459 21.9843 102.351 18.6527 102.351 12.4213C102.351 6.19001 98.5459 2.8584 91.5057 2.8584ZM90.7379 16.9526H83.8279C82.69 16.9526 81.7714 16.034 81.7714 14.8961V8.5756H90.7379C94.0215 8.5756 95.516 10.118 95.516 12.7641C95.516 15.4102 94.0215 16.9526 90.7379 16.9526Z" fill="white"/>
<path d="M201.812 26.3306V1.57666H195.409H191.646V5.07279H193.353C194.491 5.07279 195.409 5.99138 195.409 7.12934V27.0847C195.409 29.7377 197.555 31.8833 200.208 31.8833H201.812H205.576V28.3872H203.869C202.731 28.3872 201.812 27.4686 201.812 26.3306Z" fill="white"/>
<path d="M268.547 12.0308C268.547 11.0642 267.765 10.2827 266.799 10.2827H261.013V1.57666H260.993H256.681H256.66V5.4841C256.66 8.13705 254.514 10.2827 251.862 10.2827H249.723V13.7788H254.59V25.604L254.61 25.5971V27.0778C254.61 29.7308 256.756 31.8765 259.409 31.8765H261.013H266.161V28.3803H263.07C261.932 28.3803 261.013 27.4617 261.013 26.3238V15.8354C261.013 14.6974 261.932 13.7788 263.07 13.7788H266.799C267.765 13.7857 268.547 12.9974 268.547 12.0308Z" fill="white"/>
<path d="M237.006 18.3923C232.907 18.0085 231.968 17.6657 231.968 16.3838C231.968 15.2321 233.421 14.3821 236.28 14.3821C238.172 14.3821 239.426 14.574 240.722 14.8962C241.634 15.1224 242.271 15.9519 242.271 16.8911V17.227H245.767V11.2973C242.456 10.2827 239.995 9.76855 236.026 9.76855C229.452 9.76855 225.524 12.3324 225.524 16.7265C225.524 21.2921 228.04 22.999 235.814 23.7257C239.913 24.1095 240.811 24.4523 240.811 25.7342C240.811 26.927 239.358 27.5714 236.197 27.5714C233.387 27.5714 230.953 27.0573 228.869 26.1387C227.656 25.604 226.168 26.0084 225.551 27.1807C224.88 28.4557 225.435 30.0187 226.744 30.5945C229.329 31.7462 232.578 32.3837 236.245 32.3837C243.416 32.3837 247.262 29.9501 247.262 25.3846C247.262 20.8191 244.691 19.119 237.006 18.3923Z" fill="white"/>
<path d="M217.901 26.3302V10.2822H211.498H207.735V13.7784H209.442C210.58 13.7784 211.498 14.6969 211.498 15.8349V27.0842C211.498 29.7372 213.644 31.8828 216.297 31.8828H217.901H221.665V28.3867H219.958C218.82 28.3867 217.901 27.4681 217.901 26.3302Z" fill="white"/>
<path d="M214.7 6.82774C216.832 6.82774 218.285 5.41558 218.285 3.41387C218.285 1.41216 216.832 0 214.7 0C212.568 0 211.115 1.40531 211.115 3.41387C211.115 5.42243 212.568 6.82774 214.7 6.82774Z" fill="white"/>
<path d="M182.433 10.2827V21.3401C182.433 25.5903 179.862 27.1053 176.756 27.1053C174.11 27.1053 172.787 25.7822 172.787 23.047V10.2827H166.385H162.621V13.7788H164.328C165.466 13.7788 166.385 14.6974 166.385 15.8354V24.3701C166.385 29.4086 169.243 32.3975 174.152 32.3975C174.337 32.3975 174.508 32.3769 174.693 32.37L174.666 32.3975C177.6 32.3975 179.19 31.2938 180.534 30.0941C180.678 29.9707 180.815 29.8473 180.952 29.7171C181.445 29.2578 181.925 28.8054 182.433 28.4009V31.8833H188.835V27.1053V25.9947V10.2827H182.433Z" fill="white"/>
<path d="M150.7 9.77539C147.416 9.77539 144.763 11.2698 142.933 14.1284V9.77539H132.76V13.2715H134.467C135.605 13.2715 136.523 14.1901 136.523 15.3281V35.2012C136.523 37.8541 138.669 39.9998 141.322 39.9998H142.926V32.3974V29.4223C145.463 31.5268 147.409 32.3974 150.693 32.3974C156.458 32.3974 160.427 27.8319 160.427 21.0864C160.427 14.3409 156.458 9.77539 150.7 9.77539ZM148.705 27.1052C145.12 27.1052 142.858 24.7608 142.858 21.0864C142.858 17.412 145.12 15.0676 148.705 15.0676C152.29 15.0676 154.553 17.412 154.553 21.0864C154.553 24.7539 152.29 27.1052 148.705 27.1052Z" fill="white"/>
<path d="M39.3852 7.85614H24.8621C23.4535 7.85614 22.3086 6.71123 22.3086 5.30263C22.3086 3.8871 23.4535 2.74219 24.8621 2.74219H39.3852C40.7938 2.74219 41.9387 3.8871 41.9387 5.2957C41.9387 6.71123 40.7938 7.85614 39.3852 7.85614Z" fill="#D64646"/>
<path d="M33.8341 19.9928H24.8621C23.4535 19.9928 22.3086 18.8478 22.3086 17.4393C22.3086 16.0307 23.4535 14.8857 24.8621 14.8857H33.8341C35.2427 14.8857 36.3876 16.0307 36.3876 17.4393C36.3876 18.8478 35.2427 19.9928 33.8341 19.9928Z" fill="#D64646"/>
<path d="M25.5073 32.1217H2.55351C1.14492 32.1217 0 30.9768 0 29.5682C0 28.1596 1.14492 27.0146 2.55351 27.0146H25.5004C26.909 27.0146 28.0539 28.1596 28.0539 29.5682C28.0608 30.9768 26.9159 32.1217 25.5073 32.1217Z" fill="#D64646"/>
<path d="M50.0081 7.85614H48.8493C47.4407 7.85614 46.2958 6.71123 46.2958 5.30263C46.2958 3.8871 47.4407 2.74219 48.8493 2.74219H50.0081C51.4167 2.74219 52.5616 3.8871 52.5616 5.2957C52.5685 6.71123 51.4236 7.85614 50.0081 7.85614Z" fill="#D64646"/>
<path d="M50.008 19.9928H43.2981C41.8895 19.9928 40.7446 18.8478 40.7446 17.4393C40.7446 16.0307 41.8895 14.8857 43.2981 14.8857H50.008C51.4166 14.8857 52.5615 16.0307 52.5615 17.4393C52.5685 18.8478 51.4236 19.9928 50.008 19.9928Z" fill="#D64646"/>
<path d="M50.008 32.1217H34.9715C33.5629 32.1217 32.418 30.9768 32.418 29.5682C32.418 28.1596 33.5629 27.0146 34.9715 27.0146H50.008C51.4166 27.0146 52.5615 28.1596 52.5615 29.5682C52.5685 30.9768 51.4236 32.1217 50.008 32.1217Z" fill="#D64646"/>
<path d="M9.86718 3.35205L11.3868 8.0358C11.5048 8.40356 11.8448 8.64642 12.2333 8.64642H17.153C18.0134 8.64642 18.3743 9.7497 17.6734 10.2562L13.6905 13.1498C13.3783 13.3787 13.2464 13.7743 13.3644 14.142L14.884 18.8258C15.1477 19.6445 14.2109 20.3246 13.517 19.818L9.53411 16.9245C9.22186 16.6955 8.79859 16.6955 8.49328 16.9245L4.51036 19.818C3.81647 20.3246 2.87972 19.6445 3.1434 18.8258L4.66302 14.142C4.78792 13.7743 4.66302 13.3718 4.35077 13.1498L0.367848 10.2562C-0.326041 9.7497 0.0278424 8.64642 0.888264 8.64642H5.80793C6.18957 8.64642 6.53652 8.39662 6.65448 8.0358L8.17409 3.35205C8.44471 2.5402 9.6035 2.5402 9.86718 3.35205Z" fill="#006586"/>
<path d="M231.556 48.7648C232.621 48.3898 233.176 47.6398 233.176 46.4998C233.176 44.7298 231.976 43.7998 229.681 43.7998H223.636V53.9998H229.891C232.261 53.9998 233.506 53.0398 233.506 51.2098C233.506 49.9348 232.846 49.1098 231.556 48.7648ZM225.451 45.3598H229.651C230.791 45.3598 231.376 45.8248 231.376 46.7248C231.376 47.6248 230.791 48.0748 229.636 48.0748H225.451V45.3598ZM229.831 52.4398H225.451V49.6348H229.816C231.046 49.6348 231.661 50.0998 231.661 51.0298C231.661 51.9748 231.046 52.4398 229.831 52.4398Z" fill="white"/>
<path d="M244.751 45.3598V43.7998H235.706V53.9998H244.751V52.4398H237.521V49.6348H243.776V48.0748H237.521V45.3598H244.751Z" fill="white"/>
<path d="M255.793 43.7998H246.088V45.3598H250.033V53.9998H251.848V45.3598H255.793V43.7998Z" fill="white"/>
<path d="M264.233 53.9998H266.213L261.533 43.7998H259.688L255.008 53.9998H256.913L258.008 51.5548H263.138L264.233 53.9998ZM260.573 45.6748L262.463 50.0248H258.683L260.573 45.6748Z" fill="white"/>
</svg>
