<?xml version="1.0" encoding="utf-8"?>
<!-- Generator: Adobe Illustrator 27.9.0, SVG Export Plug-In . SVG Version: 6.00 Build 0)  -->
<svg version="1.1" id="Layer_1" xmlns="http://www.w3.org/2000/svg" xmlns:xlink="http://www.w3.org/1999/xlink" x="0px" y="0px"
	 viewBox="0 0 1110.3 223.3" style="enable-background:new 0 0 1110.3 223.3;" xml:space="preserve">
<style type="text/css">
	.st0{fill:#FFFFFF;}
	.st1{fill:#D64646;}
	.st2{fill:#006586;}
</style>
<g id="Layer_2_1_">
	<g id="Layer_1-2">
		<path class="st0" d="M438,87.1c0-28,20.5-46.7,51.1-46.7s51.1,18.7,51.1,46.7s-20.5,46.7-51.1,46.7S438,115.1,438,87.1z
			 M513.3,87.1c0-15.2-9.3-24.9-24.2-24.9S465,71.9,465,87.1s9.3,24.9,24.1,24.9S513.3,102.3,513.3,87.1L513.3,87.1z"/>
		<path class="st0" d="M379,11.8h-89v14.4h12.8c4.7,0,8.5,3.8,8.5,8.5l0,0v77.1c0,10.9,8.9,19.8,19.8,19.8l0,0h7.7V99.3
			c0-4.7,3.8-8.5,8.5-8.5l0,0H379c29.1,0,44.8-13.8,44.8-39.5S408,11.8,379,11.8z M375.8,70h-28.5c-4.7,0-8.5-3.8-8.5-8.5l0,0V35.4
			h37c13.6,0,19.8,6.4,19.8,17.3S389.4,70,375.8,70z"/>
		<path class="st0" d="M834.6,108.8V6.5h-42V21h7c4.7,0,8.5,3.8,8.5,8.5l0,0v82.4c0,10.9,8.9,19.8,19.9,19.8c0,0,0,0,0.1,0h22.2
			v-14.4h-7C838.5,117.3,834.6,113.5,834.6,108.8L834.6,108.8z"/>
		<path class="st0" d="M1110.3,49.7L1110.3,49.7c0-4-3.2-7.2-7.2-7.2h-23.9v-36h-18v16.2c0,10.9-8.9,19.8-19.8,19.8h-10.2V57h21.5
			v48.8h0.1v6.1c0,10.9,8.9,19.8,19.8,19.8h27.9v-14.4h-12.8c-4.7,0-8.5-3.8-8.5-8.5V65.4c0-4.7,3.8-8.5,8.5-8.5l0,0h15.4
			C1107,57,1110.2,53.7,1110.3,49.7L1110.3,49.7z"/>
		<path class="st0" d="M980,76c-17-1.6-20.8-3-20.8-8.3c0-4.8,6-8.3,17.8-8.3c6.2-0.1,12.4,0.6,18.3,2.1c3.8,1,6.4,4.4,6.4,8.2v1.4
			h14.5V46.7c-13.7-4.2-23.9-6.3-40.2-6.3c-27.2,0-43.4,10.6-43.4,28.7C932.5,88,942.9,95,975,98c16.9,1.6,20.6,3,20.6,8.3
			c0,4.9-6,7.6-19,7.6c-10.4,0.2-20.7-1.8-30.3-5.9c-5-2.2-11.2-0.5-13.7,4.3c-2.6,5-0.7,11.2,4.3,13.8c0.2,0.1,0.4,0.2,0.6,0.3
			c10.7,4.8,24.1,7.4,39.2,7.4c29.6,0,45.5-10,45.5-28.9S1011.7,79,980,76z"/>
		<path class="st0" d="M901,108.8V42.5h-42V57h7c4.7,0,8.5,3.8,8.5,8.5l0,0V112c0,10.9,8.9,19.8,19.8,19.8l0,0h22.2v-14.4h-7
			C904.9,117.3,901.1,113.5,901,108.8z"/>
		<path class="st0" d="M887.8,28.2c8.8,0,14.8-5.8,14.8-14.1S896.7,0,887.8,0S873,5.8,873,14.1S879,28.2,887.8,28.2z"/>
		<path class="st0" d="M754.5,42.5v45.7c0,17.6-10.6,23.8-23.5,23.8c-10.9,0-16.4-5.5-16.4-16.8V42.5h-42V57h7
			c4.7,0,8.5,3.8,8.5,8.5v35.2c0,20.8,11.8,33.2,32.1,33.2c0.8,0,1.5-0.1,2.2-0.1l-0.1,0.1c12.1,0,18.7-4.6,24.2-9.5
			c0.6-0.5,1.2-1,1.7-1.6c2-1.9,4-3.8,6.1-5.4v14.4H781V42.5H754.5z"/>
		<path class="st0" d="M623.5,40.4c-13.6,0-24.5,6.2-32.1,18v-18h-42v14.5h7c4.7,0,8.5,3.8,8.5,8.5v82.1l0,0
			c0,10.9,8.9,19.8,19.8,19.8l0,0h6.6v-43.7c10.5,8.7,18.5,12.3,32.1,12.3c23.8,0,40.2-18.9,40.2-46.7S647.3,40.4,623.5,40.4z
			 M615.2,112c-14.8,0-24.2-9.7-24.2-24.9s9.3-24.9,24.2-24.9s24.2,9.7,24.2,24.9S630,112,615.2,112z"/>
		<path class="st1" d="M105,11.7h57c6.6,0,12,5.4,12,12l0,0c0,6.6-5.4,12-12,12h-57c-6.6,0-12-5.4-12-12l0,0
			C93,17.1,98.4,11.7,105,11.7z"/>
		<path class="st1" d="M105,59.7h27c6.6,0,12,5.4,12,12l0,0c0,6.6-5.4,12-12,12h-27c-6.6,0-12-5.4-12-12l0,0
			C93,65.1,98.4,59.7,105,59.7z"/>
		<path class="st1" d="M12,107.7h90c6.6,0,12,5.4,12,12l0,0c0,6.6-5.4,12-12,12H12c-6.6,0-12-5.4-12-12l0,0
			C0,113.1,5.4,107.7,12,107.7z"/>
		<path class="st1" d="M204,11.7h4c6.6,0,12,5.4,12,12l0,0c0,6.6-5.4,12-12,12h-4c-6.6,0-12-5.4-12-12l0,0
			C192,17.1,197.4,11.7,204,11.7z"/>
		<path class="st1" d="M174,59.6h34c6.6,0,12,5.4,12,12v0.1c0,6.6-5.4,12-12,12h-34c-6.6,0-12-5.4-12-12v-0.1
			C162,65,167.4,59.6,174,59.6z"/>
		<path class="st1" d="M144,107.7h64c6.6,0,12,5.4,12,12l0,0c0,6.6-5.4,12-12,12h-64c-6.6,0-12-5.4-12-12l0,0
			C132,113.1,137.4,107.7,144,107.7z"/>
		<path class="st2" d="M42.7,14.4l6.6,20.2c0.5,1.6,2,2.7,3.7,2.7h21.3c2.1,0,3.8,1.7,3.8,3.8c0,1.2-0.6,2.4-1.6,3.1L59.2,56.7
			c-1.4,1-1.9,2.7-1.4,4.3l6.6,20.2c0.7,2-0.5,4.2-2.5,4.8c-1.2,0.4-2.4,0.2-3.4-0.5L41.3,73c-1.3-1-3.2-1-4.5,0L19.5,85.5
			c-1.7,1.2-4.1,0.9-5.4-0.8c-0.7-1-0.9-2.3-0.5-3.4L20.2,61c0.5-1.6-0.1-3.3-1.4-4.3L1.6,44.2c-1.7-1.2-2.1-3.6-0.9-5.4
			c0.7-1,1.9-1.6,3.1-1.6h21.3c1.7,0,3.1-1.1,3.6-2.7l6.6-20.2c0.7-2,2.8-3.1,4.8-2.5C41.4,12.3,42.3,13.2,42.7,14.4z"/>
	</g>
</g>
<g>
	<path class="st0" d="M957.7,201.8c4.5-1.7,6.6-4.5,6.6-9.5c0-7.4-5-11.2-14.5-11.2H925v42.2h26.1c9.9,0,14.9-4.1,14.9-11.6
		C965.6,206.3,962.7,203,957.7,201.8z M932.5,187.7h17.4c4.5,0,7,2.1,7,5.8s-2.5,5.4-7,5.4h-17.4V187.7z M950.3,216.7h-18.2v-11.6
		h18.2c5,0,7.4,2.1,7.4,5.8C958.1,215,955.2,216.7,950.3,216.7z"/>
	<path class="st0" d="M1012.3,187.7v-6.6h-37.2v42.2h37.2v-6.6h-29.8v-11.6h26.1v-6.6h-26.1v-11.2h29.8V187.7z"/>
	<path class="st0" d="M1057.8,181.1h-40.1v6.6h16.1v35.6h7.4v-35.6h16.1v-6.6H1057.8z"/>
	<path class="st0" d="M1092.5,223.3h8.3l-19.4-42.2h-7.4l-19.4,42.2h7.9l4.5-9.9h21.1L1092.5,223.3z M1077.6,189l7.9,17.8h-15.7
		L1077.6,189z"/>
</g>
</svg>
