<svg width="164" height="21" viewBox="0 0 164 21" fill="none" xmlns="http://www.w3.org/2000/svg">
<path d="M53.189 10.6918C53.189 7.28018 55.6771 5.00574 59.4127 5.00574C63.1483 5.00574 65.6365 7.28018 65.6365 10.6918C65.6365 14.1035 63.1483 16.3779 59.4127 16.3779C55.6771 16.3779 53.189 14.1035 53.189 10.6918ZM62.3488 10.6918C62.3488 8.84472 61.2116 7.66614 59.4093 7.66614C57.607 7.66614 56.4698 8.84472 56.4698 10.6918C56.4698 12.5355 57.607 13.7175 59.4093 13.7175C61.2151 13.7175 62.3488 12.5355 62.3488 10.6918Z" fill="white"/>
<path d="M46.0004 1.52856H37.7607H35.1727V3.28609H36.7269C37.2989 3.28609 37.7607 3.74787 37.7607 4.31992V13.7072C37.7607 15.0408 38.8394 16.1195 40.173 16.1195H41.1069V12.1771C41.1069 11.605 41.5687 11.1432 42.1407 11.1432H46.0004C49.5396 11.1432 51.4522 9.46843 51.4522 6.33591C51.4522 3.20338 49.5396 1.52856 46.0004 1.52856ZM45.6144 8.6138H42.1407C41.5687 8.6138 41.1069 8.15201 41.1069 7.57996V4.40263H45.6144C47.2651 4.40263 48.0164 5.17801 48.0164 6.50821C48.0164 7.83842 47.2651 8.6138 45.6144 8.6138Z" fill="white"/>
<path d="M101.452 13.3282V0.884277H98.2333H96.3414V2.6418H97.1995C97.7715 2.6418 98.2333 3.10358 98.2333 3.67564V13.7073C98.2333 15.041 99.3119 16.1196 100.646 16.1196H101.452H103.344V14.3621H102.486C101.914 14.3621 101.452 13.9003 101.452 13.3282Z" fill="white"/>
<path d="M135 6.13962C135 5.65371 134.607 5.26085 134.121 5.26085H131.213V0.884277H131.202H129.035H129.024V2.84857C129.024 4.18222 127.946 5.26085 126.612 5.26085H125.537V7.01838H127.984V12.9629L127.994 12.9595V13.7039C127.994 15.0375 129.073 16.1161 130.406 16.1161H131.213H133.801V14.3586H132.247C131.674 14.3586 131.213 13.8968 131.213 13.3248V8.05221C131.213 7.48016 131.674 7.01838 132.247 7.01838H134.121C134.607 7.02182 135 6.62552 135 6.13962Z" fill="white"/>
<path d="M119.144 9.33767C117.084 9.14468 116.611 8.97238 116.611 8.32795C116.611 7.749 117.342 7.32168 118.779 7.32168C119.73 7.32168 120.361 7.41817 121.012 7.58014C121.471 7.69386 121.791 8.11085 121.791 8.58296V8.75182H123.549V5.77093C121.884 5.2609 120.647 5.00244 118.652 5.00244C115.347 5.00244 113.372 6.29129 113.372 8.50026C113.372 10.7954 114.637 11.6535 118.545 12.0188C120.606 12.2117 121.057 12.384 121.057 13.0285C121.057 13.6281 120.326 13.952 118.738 13.952C117.325 13.952 116.101 13.6936 115.054 13.2318C114.444 12.963 113.696 13.1663 113.386 13.7556C113.048 14.3966 113.327 15.1823 113.986 15.4718C115.285 16.0507 116.918 16.3712 118.762 16.3712C122.367 16.3712 124.3 15.1478 124.3 12.8527C124.3 10.5576 123.007 9.70295 119.144 9.33767Z" fill="white"/>
<path d="M109.54 13.3282V5.26086H106.321H104.429V7.01839H105.288C105.86 7.01839 106.321 7.48017 106.321 8.05222V13.7073C106.321 15.041 107.4 16.1196 108.734 16.1196H109.54H111.432V14.3621H110.574C110.002 14.3621 109.54 13.9003 109.54 13.3282Z" fill="white"/>
<path d="M107.931 3.52401C109.002 3.52401 109.733 2.81411 109.733 1.80784C109.733 0.801576 109.002 0.0916748 107.931 0.0916748C106.859 0.0916748 106.128 0.79813 106.128 1.80784C106.128 2.81756 106.859 3.52401 107.931 3.52401Z" fill="white"/>
<path d="M91.7098 5.26074V10.8193C91.7098 12.9559 90.4175 13.7175 88.8564 13.7175C87.5262 13.7175 86.8611 13.0524 86.8611 11.6774V5.26074H83.6424H81.7505V7.01827H82.6086C83.1806 7.01827 83.6424 7.48005 83.6424 8.0521V12.3425C83.6424 14.8754 85.0794 16.3779 87.5469 16.3779C87.6399 16.3779 87.7261 16.3676 87.8191 16.3642L87.8053 16.3779C89.2803 16.3779 90.0798 15.8231 90.7552 15.22C90.8276 15.158 90.8965 15.096 90.9654 15.0305C91.2135 14.7996 91.4548 14.5722 91.7098 14.3688V16.1195H94.9285V13.7175V13.1593V5.26074H91.7098Z" fill="white"/>
<path d="M75.7577 5.00574C74.107 5.00574 72.7734 5.75699 71.8532 7.19403V5.00574H66.7392V6.76326H67.5973C68.1693 6.76326 68.6311 7.22504 68.6311 7.7971V17.7874C68.6311 19.1211 69.7098 20.1997 71.0434 20.1997H71.8498V16.3779V14.8823C73.1249 15.9403 74.1036 16.3779 75.7543 16.3779C78.6524 16.3779 80.6478 14.0828 80.6478 10.6918C80.6478 7.30086 78.6524 5.00574 75.7577 5.00574ZM74.7549 13.7175C72.9526 13.7175 71.8153 12.539 71.8153 10.6918C71.8153 8.84472 72.9526 7.66614 74.7549 7.66614C76.5572 7.66614 77.6944 8.84472 77.6944 10.6918C77.6944 12.5355 76.5572 13.7175 74.7549 13.7175Z" fill="white"/>
<path d="M19.7992 4.04078H12.4983C11.7902 4.04078 11.2147 3.46523 11.2147 2.75712C11.2147 2.04553 11.7902 1.46997 12.4983 1.46997H19.7992C20.5073 1.46997 21.0828 2.04553 21.0828 2.75363C21.0828 3.46523 20.5073 4.04078 19.7992 4.04078Z" fill="#D64646"/>
<path d="M17.0086 10.1417H12.4983C11.7902 10.1417 11.2147 9.56611 11.2147 8.858C11.2147 8.1499 11.7902 7.57434 12.4983 7.57434H17.0086C17.7167 7.57434 18.2923 8.1499 18.2923 8.858C18.2923 9.56611 17.7167 10.1417 17.0086 10.1417Z" fill="#D64646"/>
<path d="M12.8227 16.2392H1.28365C0.575547 16.2392 -7.62939e-06 15.6636 -7.62939e-06 14.9555C-7.62939e-06 14.2474 0.575547 13.6719 1.28365 13.6719H12.8192C13.5273 13.6719 14.1028 14.2474 14.1028 14.9555C14.1063 15.6636 13.5308 16.2392 12.8227 16.2392Z" fill="#D64646"/>
<path d="M25.1393 4.04078H24.5568C23.8487 4.04078 23.2731 3.46523 23.2731 2.75712C23.2731 2.04553 23.8487 1.46997 24.5568 1.46997H25.1393C25.8474 1.46997 26.423 2.04553 26.423 2.75363C26.4265 3.46523 25.8509 4.04078 25.1393 4.04078Z" fill="#D64646"/>
<path d="M25.1393 10.1417H21.7662C21.0581 10.1417 20.4826 9.56611 20.4826 8.858C20.4826 8.1499 21.0581 7.57434 21.7662 7.57434H25.1393C25.8474 7.57434 26.423 8.1499 26.423 8.858C26.4265 9.56611 25.8509 10.1417 25.1393 10.1417Z" fill="#D64646"/>
<path d="M25.1393 16.2392H17.5804C16.8723 16.2392 16.2967 15.6636 16.2967 14.9555C16.2967 14.2474 16.8723 13.6719 17.5804 13.6719H25.1393C25.8475 13.6719 26.423 14.2474 26.423 14.9555C26.4265 15.6636 25.8509 16.2392 25.1393 16.2392Z" fill="#D64646"/>
<path d="M4.96035 1.77631L5.72427 4.13085C5.78357 4.31572 5.95449 4.43781 6.14983 4.43781H8.62297C9.05551 4.43781 9.2369 4.99244 8.88459 5.24708L6.88235 6.70166C6.72539 6.81677 6.65911 7.0156 6.71841 7.20048L7.48233 9.55502C7.61488 9.96663 7.14397 10.3085 6.79515 10.0538L4.79292 8.59925C4.63595 8.48414 4.42316 8.48414 4.26968 8.59925L2.26745 10.0538C1.91863 10.3085 1.44772 9.96663 1.58027 9.55502L2.34419 7.20048C2.40698 7.0156 2.34419 6.81328 2.18722 6.70166L0.184986 5.24708C-0.163835 4.99244 0.0140638 4.43781 0.446602 4.43781H2.91974C3.1116 4.43781 3.28601 4.31224 3.34531 4.13085L4.10923 1.77631C4.24527 1.36818 4.8278 1.36818 4.96035 1.77631Z" fill="#006586"/>
<path d="M144.281 13.1835C144.856 12.9809 145.156 12.5755 145.156 11.9593C145.156 11.0027 144.508 10.5 143.267 10.5H140V16.013H143.381C144.662 16.013 145.335 15.4942 145.335 14.505C145.335 13.8159 144.978 13.37 144.281 13.1835ZM140.981 11.3432H143.251C143.867 11.3432 144.183 11.5945 144.183 12.0809C144.183 12.5674 143.867 12.8106 143.243 12.8106H140.981V11.3432ZM143.348 15.1699H140.981V13.6538H143.34C144.005 13.6538 144.337 13.9051 144.337 14.4078C144.337 14.9185 144.005 15.1699 143.348 15.1699Z" fill="white"/>
<path d="M151.413 11.3432V10.5H146.524V16.013H151.413V15.1699H147.505V13.6538H150.886V12.8106H147.505V11.3432H151.413Z" fill="white"/>
<path d="M157.381 10.5H152.135V11.3432H154.268V16.013H155.249V11.3432H157.381V10.5Z" fill="white"/>
<path d="M161.942 16.013H163.012L160.483 10.5H159.486L156.956 16.013H157.986L158.578 14.6915H161.35L161.942 16.013ZM159.964 11.5134L160.985 13.8646H158.942L159.964 11.5134Z" fill="white"/>
</svg>
