<svg id="Layer_1" data-name="Layer 1" xmlns="http://www.w3.org/2000/svg" viewBox="0 0 220 120.06"><defs><style>.cls-1{fill:#d64646;}.cls-2{fill:#006586;}</style></defs><path class="cls-1" d="M955.33,479.8h57a12,12,0,0,1,12,12h0a12,12,0,0,1-12,12h-57a12,12,0,0,1-12-12h0A12,12,0,0,1,955.33,479.8Z" transform="translate(-850.33 -479.74)"/><path class="cls-1" d="M955.33,527.8h27a12,12,0,0,1,12,12h0a12,12,0,0,1-12,12h-27a12,12,0,0,1-12-12h0A12,12,0,0,1,955.33,527.8Z" transform="translate(-850.33 -479.74)"/><path class="cls-1" d="M862.33,575.8h90a12,12,0,0,1,12,12h0a12,12,0,0,1-12,12h-90a12,12,0,0,1-12-12h0A12,12,0,0,1,862.33,575.8Z" transform="translate(-850.33 -479.74)"/><path class="cls-1" d="M1054.33,479.8h4a12,12,0,0,1,12,12h0a12,12,0,0,1-12,12h-4a12,12,0,0,1-12-12h0A12,12,0,0,1,1054.33,479.8Z" transform="translate(-850.33 -479.74)"/><path class="cls-1" d="M1024.33,527.7h34a12,12,0,0,1,12,12v.1a12,12,0,0,1-12,12h-34a12,12,0,0,1-12-12v-.1A12,12,0,0,1,1024.33,527.7Z" transform="translate(-850.33 -479.74)"/><path class="cls-1" d="M994.33,575.8h64a12,12,0,0,1,12,12h0a12,12,0,0,1-12,12h-64a12,12,0,0,1-12-12h0A12,12,0,0,1,994.33,575.8Z" transform="translate(-850.33 -479.74)"/><path class="cls-2" d="M893,482.5l6.6,20.2a3.87,3.87,0,0,0,3.7,2.7h21.3a3.8,3.8,0,0,1,3.8,3.8,3.84,3.84,0,0,1-1.6,3.1l-17.3,12.5a3.79,3.79,0,0,0-1.4,4.3l6.6,20.2a3.78,3.78,0,0,1-2.5,4.8,3.73,3.73,0,0,1-3.4-.5l-17.2-12.5a3.75,3.75,0,0,0-4.5,0l-17.3,12.5a3.94,3.94,0,0,1-5.4-.8,3.78,3.78,0,0,1-.5-3.4l6.6-20.3a4,4,0,0,0-1.4-4.3l-17.2-12.5a3.93,3.93,0,0,1-.9-5.4,3.84,3.84,0,0,1,3.1-1.6h21.3a3.75,3.75,0,0,0,3.6-2.7l6.6-20.2a3.9,3.9,0,0,1,4.8-2.5A4.19,4.19,0,0,1,893,482.5Z" transform="translate(-850.33 -479.74)"/></svg>