<?xml version="1.0" encoding="utf-8"?>
<!-- Generator: Adobe Illustrator 27.9.0, SVG Export Plug-In . SVG Version: 6.00 Build 0)  -->
<svg version="1.1" id="Layer_1" xmlns="http://www.w3.org/2000/svg" xmlns:xlink="http://www.w3.org/1999/xlink" x="0px" y="0px"
	 viewBox="0 0 163 21" style="enable-background:new 0 0 163 21;" xml:space="preserve">
<style type="text/css">
	.st0{fill:#FFFFFF;}
	.st1{fill:#D64646;}
	.st2{fill:#006586;}
</style>
<path class="st0" d="M144.3,13.2c0.6-0.2,0.9-0.6,0.9-1.2c0-1-0.6-1.5-1.9-1.5H140V16h3.4c1.3,0,2-0.5,2-1.5
	C145.3,13.8,145,13.4,144.3,13.2z M141,11.3h2.3c0.6,0,0.9,0.3,0.9,0.7c0,0.5-0.3,0.7-0.9,0.7H141V11.3z M143.3,15.2H141v-1.5h2.4
	c0.7,0,1,0.3,1,0.8C144.3,14.9,144,15.2,143.3,15.2z"/>
<path class="st0" d="M151.4,11.3v-0.8h-4.9V16h4.9v-0.8h-3.9v-1.5h3.4v-0.8h-3.4v-1.5L151.4,11.3L151.4,11.3z"/>
<path class="st0" d="M157.4,10.5h-5.2v0.8h2.1V16h1v-4.7h2.1L157.4,10.5L157.4,10.5z"/>
<path class="st0" d="M161.9,16h1.1l-2.5-5.5h-1L157,16h1l0.6-1.3h2.8L161.9,16z M160,11.5l1,2.4h-2L160,11.5z"/>
<g id="Layer_2_1_">
	<g id="Layer_1-2">
		<path class="st0" d="M53.3,10.7c0-3.4,2.5-5.7,6.2-5.7s6.2,2.3,6.2,5.7s-2.5,5.7-6.2,5.7S53.3,14.1,53.3,10.7z M62.4,10.7
			c0-1.8-1.1-3-2.9-3c-1.8,0-2.9,1.2-2.9,3s1.1,3,2.9,3S62.4,12.5,62.4,10.7L62.4,10.7z"/>
		<path class="st0" d="M46.1,1.5H35.3v1.8h1.6c0.6,0,1,0.5,1,1l0,0v9.4c0,1.3,1.1,2.4,2.4,2.4l0,0h0.9v-3.9c0-0.6,0.5-1,1-1l0,0h3.9
			c3.5,0,5.4-1.7,5.4-4.8S49.6,1.5,46.1,1.5z M45.7,8.6h-3.5c-0.6,0-1-0.5-1-1l0,0V4.4h4.5c1.7,0,2.4,0.8,2.4,2.1S47.3,8.6,45.7,8.6
			z"/>
		<path class="st0" d="M101.5,13.3V0.9h-5.1v1.8h0.9c0.6,0,1,0.5,1,1l0,0v10c0,1.3,1.1,2.4,2.4,2.4l0,0h2.7v-1.8h-0.9
			C102,14.4,101.5,13.9,101.5,13.3L101.5,13.3z"/>
		<path class="st0" d="M135,6.1L135,6.1c0-0.5-0.4-0.9-0.9-0.9h-2.9V0.9H129v2c0,1.3-1.1,2.4-2.4,2.4h-1.2V7h2.6v6l0,0v0.7
			c0,1.3,1.1,2.4,2.4,2.4h3.4v-1.8h-1.6c-0.6,0-1-0.5-1-1V8c0-0.6,0.5-1,1-1l0,0h1.9C134.6,7,135,6.6,135,6.1L135,6.1z"/>
		<path class="st0" d="M119.2,9.3c-2.1-0.2-2.5-0.4-2.5-1s0.7-1,2.2-1c0.8,0,1.5,0.1,2.2,0.3c0.5,0.1,0.8,0.5,0.8,1v0.2h1.8v-3
			C122,5.3,120.8,5,118.8,5c-3.3,0-5.3,1.3-5.3,3.5c0,2.3,1.3,3.1,5.2,3.5c2.1,0.2,2.5,0.4,2.5,1s-0.7,0.9-2.3,0.9
			c-1.3,0-2.5-0.2-3.7-0.7c-0.6-0.3-1.4-0.1-1.7,0.5c-0.3,0.6-0.1,1.4,0.5,1.7c0,0,0,0,0.1,0c1.3,0.6,2.9,0.9,4.8,0.9
			c3.6,0,5.5-1.2,5.5-3.5S123,9.7,119.2,9.3z"/>
		<path class="st0" d="M109.6,13.3v-8h-5.1V7h0.9c0.6,0,1,0.5,1,1l0,0v5.7c0,1.3,1.1,2.4,2.4,2.4l0,0h2.7v-1.8h-0.9
			C110,14.4,109.6,13.9,109.6,13.3z"/>
		<path class="st0" d="M107.9,3.5c1.1,0,1.8-0.7,1.8-1.7s-0.7-1.7-1.8-1.7s-1.8,0.7-1.8,1.7S106.9,3.5,107.9,3.5z"/>
		<path class="st0" d="M91.7,5.3v5.6c0,2.1-1.3,2.9-2.9,2.9c-1.3,0-2-0.7-2-2V5.3h-5.1V7h0.9c0.6,0,1,0.5,1,1v4.3c0,2.5,1.4,4,3.9,4
			c0.1,0,0.2,0,0.3,0l0,0c1.5,0,2.3-0.6,2.9-1.2c0.1-0.1,0.1-0.1,0.2-0.2c0.2-0.2,0.5-0.5,0.7-0.7V16H95V5.3H91.7z"/>
		<path class="st0" d="M75.8,5c-1.7,0-3,0.8-3.9,2.2V5h-5.1v1.8h0.9c0.6,0,1,0.5,1,1v10l0,0c0,1.3,1.1,2.4,2.4,2.4l0,0h0.8v-5.3
			c1.3,1.1,2.2,1.5,3.9,1.5c2.9,0,4.9-2.3,4.9-5.7S78.7,5,75.8,5z M74.8,13.7c-1.8,0-2.9-1.2-2.9-3s1.1-3,2.9-3s2.9,1.2,2.9,3
			S76.6,13.7,74.8,13.7z"/>
		<path class="st1" d="M12.8,1.5h6.9c0.8,0,1.5,0.7,1.5,1.5l0,0c0,0.8-0.7,1.5-1.5,1.5h-6.9c-0.8,0-1.5-0.7-1.5-1.5l0,0
			C11.3,2.2,12,1.5,12.8,1.5z"/>
		<path class="st1" d="M12.8,7.4H16c0.8,0,1.5,0.7,1.5,1.5l0,0c0,0.8-0.7,1.5-1.5,1.5h-3.3c-0.8,0-1.5-0.7-1.5-1.5l0,0
			C11.3,8,12,7.4,12.8,7.4z"/>
		<path class="st1" d="M1.5,13.2h10.9c0.8,0,1.5,0.7,1.5,1.5l0,0c0,0.8-0.7,1.5-1.5,1.5H1.5c-0.8,0-1.5-0.7-1.5-1.5l0,0
			C0,13.8,0.7,13.2,1.5,13.2z"/>
		<path class="st1" d="M24.8,1.5h0.5c0.8,0,1.5,0.7,1.5,1.5l0,0c0,0.8-0.7,1.5-1.5,1.5h-0.5c-0.8,0-1.5-0.7-1.5-1.5l0,0
			C23.3,2.2,24,1.5,24.8,1.5z"/>
		<path class="st1" d="M21.2,7.3h4.1c0.8,0,1.5,0.7,1.5,1.5l0,0c0,0.8-0.7,1.5-1.5,1.5h-4.1c-0.8,0-1.5-0.7-1.5-1.5l0,0
			C19.7,8,20.4,7.3,21.2,7.3z"/>
		<path class="st1" d="M17.5,13.2h7.8c0.8,0,1.5,0.7,1.5,1.5l0,0c0,0.8-0.7,1.5-1.5,1.5h-7.8c-0.8,0-1.5-0.7-1.5-1.5l0,0
			C16,13.8,16.7,13.2,17.5,13.2z"/>
		<path class="st2" d="M5.2,1.8L6,4.3c0.1,0.2,0.2,0.3,0.4,0.3H9c0.3,0,0.5,0.2,0.5,0.5c0,0.1-0.1,0.3-0.2,0.4L7.2,7
			C7,7.1,7,7.3,7,7.5L7.8,10c0.1,0.2-0.1,0.5-0.3,0.6c-0.1,0-0.3,0-0.4-0.1L5,9C4.9,8.8,4.6,8.8,4.5,9l-2.1,1.5
			c-0.2,0.1-0.5,0.1-0.7-0.1c-0.1-0.1-0.1-0.3-0.1-0.4l0.8-2.5c0.1-0.2,0-0.4-0.2-0.5l-2-1.5C0,5.3-0.1,5,0.1,4.8
			c0.1-0.1,0.2-0.2,0.4-0.2h2.6c0.2,0,0.4-0.1,0.4-0.3l0.8-2.5c0.1-0.2,0.3-0.4,0.6-0.3C5,1.6,5.1,1.7,5.2,1.8z"/>
	</g>
</g>
</svg>
