<svg width="660" height="90" viewBox="0 0 660 90" fill="none" xmlns="http://www.w3.org/2000/svg">
<path d="M94.1745 2.31152V87.5506H73.7667L75.0916 26.8065L75.3171 18.2375L74.5842 21.2535C73.5131 26.0736 73.3721 26.6937 72.4137 30.3017L56.3469 87.5506H37.9968L22.5782 32.7259L18.8293 17.5046C19.1957 24.2696 19.1957 25.7072 19.5621 33.797L20.6333 87.5224H0V2.31152H31.1472L44.198 50.1176L47.2141 63.7603C48.4262 57.8409 48.5389 57.249 49.5255 53.2464L63.14 2.31152H94.1745Z" fill="white"/>
<path d="M111.904 2.31152H146.209C160.218 2.31152 172.649 2.31152 180.146 13.051C183.416 17.871 184.967 24.7488 184.967 30.5554C184.967 35.2627 184.008 39.8573 182.063 43.8317C174.678 59.0248 159.006 59.3913 147.421 59.6449H133.299V87.5506H111.933V2.31152H111.904ZM133.271 18.012V43.8599H146.068C154.045 43.8599 163.713 43.6062 163.713 30.4709C163.713 18.012 152.974 18.012 146.801 18.012H133.271Z" fill="white"/>
<path d="M195.029 2.31152H233.421C242.356 2.42427 253.462 2.56521 261.298 11.0215C265.273 15.4751 268.063 22.2401 268.063 29.9917C268.063 47.1297 256.366 51.3578 250.559 53.5282L270.234 87.5788H246.669L229.785 57.1644H216.396V87.5788H195.029V2.31152ZM216.396 18.2657V41.3231H234.013C237.029 41.1821 246.81 40.9566 246.81 29.597C246.81 18.2375 238.974 18.3784 234.492 18.2375H216.396V18.2657Z" fill="white"/>
<path d="M307.582 10.3165C310.006 7.75145 311.613 5.80651 315.954 3.72063C319.816 2.11394 325.284 0.648193 331.26 0.648193C336.249 0.648193 341.886 1.60657 346.227 4.0307C355.078 8.70982 357.333 16.2641 357.333 29.3149V86.8174H332.697V39.4624C332.697 31.88 332.528 29.1458 331.57 26.8908C329.625 22.3808 325.284 20.4358 320.464 20.4358C307.413 20.4358 307.413 30.8934 307.413 41.3792V86.8174H282.608V2.90319H307.582V10.3165Z" fill="#009CC0"/>
<path d="M452.353 65.3951C449.45 69.7359 446.547 73.9359 442.206 77.9667C434.962 84.7317 423.997 89.89 410.467 89.89C385.493 89.89 367.932 73.9359 367.932 46.3967C367.932 26.1016 377.91 0 411.115 0C416.104 0 430.593 0.479188 441.388 12.0924C452.353 23.8466 452.973 40.28 453.312 49.7792H393.216C393.047 60.2367 399.023 70.7225 412.383 70.7225C425.744 70.7225 430.593 61.8716 433.637 55.8959L452.325 65.3951H452.353ZM427.717 34.3042C427.238 30.7526 426.59 26.1016 423.038 22.3809C419.966 19.3085 415.315 17.7018 410.946 17.7018C404.998 17.7018 400.798 20.6051 398.374 23.1701C394.992 26.8627 394.174 30.7526 393.385 34.276H427.689L427.717 34.3042Z" fill="#009CC0"/>
<path d="M480.146 2.73413L491.9 61.5333L504.641 2.73413H531.053L542.497 62.0125L555.689 2.73413H581.311L556.196 86.8175H529.305L516.903 30.7525L504.331 86.8175H477.102L454.073 2.73413H480.174H480.146Z" fill="#009CC0"/>
<path d="M594.418 58.461C601.183 65.0569 609.555 70.0461 618.913 70.0461C624.861 70.0461 633.881 68.1012 633.881 61.8436C633.881 58.9402 632.105 57.8127 630.668 57.0235C626.975 55.0785 621.168 54.5994 616.32 53.8101C612.628 53.1618 608.738 52.3725 605.045 51.245C599.887 49.8075 594.728 47.6934 591.036 44.0009C587.343 40.3083 584.75 34.5017 584.75 28.2158C584.75 14.3758 596.673 0.0283203 620.182 0.0283203C639.998 0.0283203 651.921 8.56914 657.728 12.6L642.422 26.7783C634.529 20.6616 627.116 18.4066 621.309 18.4066C611.641 18.4066 609.386 22.2683 609.386 24.6924C609.386 29.5125 614.713 30.499 622.747 31.9366C639.659 35.009 659.306 39.519 659.306 59.4758C659.306 79.4326 639.321 88.9599 619.505 88.9599C596.138 88.9599 584.074 77.6849 578.746 72.6957L594.362 58.5174L594.418 58.461Z" fill="#009CC0"/>
</svg>
