<svg width="16" height="18" viewBox="0 0 16 18" fill="none" xmlns="http://www.w3.org/2000/svg">
<path d="M0 2.5C0 1.12 1.12 0 2.5 0H13.5C14.88 0 16 1.12 16 2.5V11.5C16 15.09 13.09 18 9.5 18H2.5C1.12 18 0 16.88 0 15.5V2.5Z" fill="#EEEEEE"/>
<path d="M15 11.5V2.5C15 1.67 14.33 1 13.5 1H2.5C1.67 1 1 1.67 1 2.5V15.5C1 16.33 1.67 17 2.5 17H9.5C10.33 17 11 16.33 11 15.5C11 14.12 12.12 13 13.5 13C14.33 13 15 12.33 15 11.5ZM14.5 13.79C14.19 13.92 13.85 14 13.5 14C12.67 14 12 14.67 12 15.5C12 15.86 11.93 16.19 11.79 16.5C12.99 15.95 13.95 14.99 14.5 13.79ZM0 2.5C0 1.12 1.12 0 2.5 0H13.5C14.88 0 16 1.12 16 2.5V11.5C16 15.09 13.09 18 9.5 18H2.5C1.12 18 0 16.88 0 15.5V2.5ZM4.5 6C4.22 6 4 5.78 4 5.5C4 5.22 4.22 5 4.5 5H11.5C11.78 5 12 5.22 12 5.5C12 5.78 11.78 6 11.5 6H4.5ZM4.5 9C4.22 9 4 8.78 4 8.5C4 8.22 4.22 8 4.5 8H11.5C11.78 8 12 8.22 12 8.5C12 8.78 11.78 9 11.5 9H4.5ZM4.5 12C4.22 12 4 11.78 4 11.5C4 11.22 4.22 11 4.5 11H9.5C9.78 11 10 11.22 10 11.5C10 11.78 9.78 12 9.5 12H4.5Z" fill="#666666"/>
</svg>
