<svg width="18" height="16" viewBox="0 0 18 16" fill="none" xmlns="http://www.w3.org/2000/svg">
<path fill-rule="evenodd" clip-rule="evenodd" d="M16.6072 1.57142H9.64292V1.0357C9.64292 0.741058 9.40185 0.499985 9.1072 0.499985H8.03577C7.74112 0.499985 7.50005 0.741058 7.50005 1.0357V1.57142H0.535718C0.241073 1.57142 0 1.81249 0 2.10714V3.17857C0 3.47322 0.241073 3.71429 0.535718 3.71429H7.50005V4.25001C7.50005 4.54465 7.74112 4.78573 8.03577 4.78573H9.1072C9.40185 4.78573 9.64292 4.54465 9.64292 4.25001V3.71429H16.6072C16.9019 3.71429 17.143 3.47322 17.143 3.17857V2.10714C17.143 1.81249 16.9019 1.57142 16.6072 1.57142M16.6072 6.92859H13.9287V6.39288C13.9287 6.09823 13.6876 5.85716 13.3929 5.85716H12.3215C12.0269 5.85716 11.7858 6.09823 11.7858 6.39288V6.92859H0.535718C0.241073 6.92859 0 7.16967 0 7.46431V8.53575C0 8.83039 0.241073 9.07147 0.535718 9.07147H11.7858V9.60718C11.7858 9.90183 12.0269 10.1429 12.3215 10.1429H13.3929C13.6876 10.1429 13.9287 9.90183 13.9287 9.60718V9.07147H16.6072C16.9019 9.07147 17.143 8.83039 17.143 8.53575V7.46431C17.143 7.16967 16.9019 6.92859 16.6072 6.92859M16.6072 12.2857H5.35718V11.75C5.35718 11.4553 5.1161 11.2143 4.82146 11.2143H3.75002C3.45538 11.2143 3.21431 11.4553 3.21431 11.75V12.2857H0.535718C0.241073 12.2857 0 12.5268 0 12.8214V13.8929C0 14.1875 0.241073 14.4286 0.535718 14.4286H3.21431V14.9643C3.21431 15.2589 3.45538 15.5 3.75002 15.5H4.82146C5.1161 15.5 5.35718 15.2589 5.35718 14.9643V14.4286H16.6072C16.9019 14.4286 17.143 14.1875 17.143 13.8929V12.8214C17.143 12.5268 16.9019 12.2857 16.6072 12.2857" fill="#55A3BD"/>
</svg>
