<svg width="95" height="14" viewBox="0 0 95 14" fill="none" xmlns="http://www.w3.org/2000/svg">
<path d="M37.5192 7.37686C37.5192 5.00542 39.2657 3.42163 41.8727 3.42163C44.4798 3.42163 46.2263 5.00542 46.2263 7.37686C46.2263 9.74831 44.4798 11.3321 41.8727 11.3321C39.2657 11.3321 37.5192 9.74831 37.5192 7.37686ZM43.9345 7.37686C43.9345 6.08951 43.1422 5.26797 41.8727 5.26797C40.6033 5.26797 39.8195 6.08951 39.8195 7.37686C39.8195 8.66422 40.6118 9.48575 41.8727 9.48575C43.1337 9.48575 43.9345 8.66422 43.9345 7.37686Z" fill="#003C55"/>
<path d="M32.4925 0.99939H24.91V2.21899H26.0005C26.4009 2.21899 26.7247 2.54083 26.7247 2.93889V9.46883C26.7247 10.392 27.4829 11.1458 28.4116 11.1458H29.0676V8.41015C29.0676 8.01209 29.3913 7.69025 29.7918 7.69025H32.4925C34.9718 7.69025 36.3094 6.52147 36.3094 4.34482C36.3094 2.16817 34.9633 0.99939 32.4925 0.99939ZM32.2199 5.92861H29.7918C29.3913 5.92861 29.0676 5.60677 29.0676 5.2087V2.99818H32.2199C33.3786 2.99818 33.9068 3.54022 33.9068 4.46339C33.9068 5.38656 33.3786 5.92861 32.2199 5.92861Z" fill="#003C55"/>
<path d="M71.3084 9.21466V0.550415H67.7301V1.77848H68.3265C68.7269 1.77848 69.0507 2.10032 69.0507 2.49839V9.47721C69.0507 10.4004 69.8089 11.1542 70.7461 11.1542C70.7461 11.1542 70.7461 11.1542 70.7546 11.1542H72.646V9.93456H72.0496C71.6407 9.93456 71.3084 9.61272 71.3084 9.21466Z" fill="#003C55"/>
<path d="M94.7973 4.20921C94.7973 3.87044 94.5246 3.59941 94.1838 3.59941H92.1476V0.550415H90.6141V1.92246C90.6141 2.84563 89.8558 3.59941 88.9272 3.59941H88.0582V4.82748H89.8899V8.96057H89.8984V9.47721C89.8984 10.4004 90.6567 11.1542 91.5853 11.1542H93.9623V9.93456H92.8718C92.4714 9.93456 92.1476 9.61272 92.1476 9.21466V5.53892C92.1476 5.14085 92.4714 4.81902 92.8718 4.81902H94.1838C94.5161 4.82748 94.7887 4.54799 94.7973 4.20921Z" fill="#003C55"/>
<path d="M83.6961 6.43675C82.2477 6.30124 81.924 6.18267 81.924 5.73379C81.924 5.32726 82.4352 5.03083 83.4405 5.03083C83.9687 5.02236 84.4969 5.08164 84.9996 5.20868C85.3234 5.29338 85.5449 5.58134 85.5449 5.90318V6.02175H86.7802V3.95521C85.613 3.59949 84.744 3.42163 83.3553 3.42163C81.0379 3.42163 79.6577 4.31939 79.6577 5.85236C79.6492 7.45309 80.5353 8.04595 83.2701 8.30003C84.7099 8.43554 85.0252 8.55411 85.0252 9.003C85.0252 9.418 84.514 9.64667 83.4064 9.64667C82.5204 9.66361 81.6428 9.49422 80.8249 9.14698C80.3989 8.96065 79.8707 9.10463 79.6577 9.51116C79.4362 9.93463 79.5981 10.4597 80.0241 10.6799C80.0411 10.6884 80.0582 10.6969 80.0752 10.7054C80.9868 11.1119 82.1285 11.3321 83.4149 11.3321C85.9368 11.3321 87.2914 10.4851 87.2914 8.88442C87.2914 7.2837 86.3968 6.69084 83.6961 6.43675Z" fill="#003C55"/>
<path d="M76.9655 9.21473V3.59949H73.3872V4.82756H73.9836C74.384 4.82756 74.7078 5.1494 74.7078 5.54746V9.48575C74.7078 10.4089 75.466 11.1627 76.3947 11.1627H78.2861V9.9431H77.6897C77.2978 9.93463 76.974 9.61279 76.9655 9.21473Z" fill="#003C55"/>
<path d="M75.8409 2.38838C76.5906 2.38838 77.1018 1.89716 77.1018 1.19419C77.1018 0.491228 76.5991 0 75.8409 0C75.0826 0 74.58 0.491228 74.58 1.19419C74.58 1.89716 75.0911 2.38838 75.8409 2.38838Z" fill="#003C55"/>
<path d="M64.4841 3.59949V7.47002C64.4841 8.96065 63.581 9.48575 62.4819 9.48575C61.5533 9.48575 61.0847 9.01993 61.0847 8.06289V3.59949H57.5064V4.82756H58.1028C58.5032 4.82756 58.827 5.1494 58.827 5.54746V8.52871C58.827 10.2903 59.8323 11.3406 61.5618 11.3406C61.63 11.3406 61.6896 11.3321 61.7492 11.3321L61.7407 11.3406C62.7716 11.3406 63.3339 10.951 63.8025 10.536C63.8536 10.4936 63.9047 10.4513 63.9473 10.4005C64.1177 10.2395 64.2881 10.0786 64.467 9.9431V11.1627H66.7418V3.59949H64.4841Z" fill="#003C55"/>
<path d="M53.3233 3.42163C52.1646 3.42163 51.2359 3.94674 50.5884 4.94613V3.42163H47.0101V4.6497H47.6065C48.0069 4.6497 48.3307 4.97154 48.3307 5.3696V12.323C48.3307 13.2462 49.0889 14 50.0176 14H50.5799V10.2988C51.4745 11.0357 52.1561 11.3406 53.3147 11.3406C55.3424 11.3406 56.7397 9.73984 56.7397 7.38533C56.7397 5.03083 55.351 3.42163 53.3233 3.42163ZM52.6161 9.48575C51.3552 9.48575 50.5543 8.66422 50.5543 7.37686C50.5543 6.08951 51.3467 5.26797 52.6161 5.26797C53.8856 5.26797 54.6779 6.08951 54.6779 7.37686C54.6779 8.66422 53.877 9.48575 52.6161 9.48575Z" fill="#003C55"/>
<path d="M9.14847 0.990845H14.0047C14.567 0.990845 15.0271 1.44819 15.0271 2.00718C15.0271 2.56616 14.567 3.02351 14.0047 3.02351H9.14847C8.58616 3.02351 8.1261 2.56616 8.1261 2.00718C8.1261 1.44819 8.58616 0.990845 9.14847 0.990845Z" fill="#D64646"/>
<path d="M9.14847 5.05627H11.4488C12.0111 5.05627 12.4712 5.51362 12.4712 6.07261C12.4712 6.63159 12.0111 7.08894 11.4488 7.08894H9.14847C8.58616 7.08894 8.1261 6.63159 8.1261 6.07261C8.1261 5.51362 8.58616 5.05627 9.14847 5.05627Z" fill="#D64646"/>
<path d="M1.22513 9.12158H8.89288C9.45518 9.12158 9.91525 9.57893 9.91525 10.1379C9.91525 10.6969 9.45518 11.1543 8.89288 11.1543H1.22513C0.662824 11.1543 0.202759 10.6969 0.202759 10.1379C0.202759 9.57893 0.662824 9.12158 1.22513 9.12158Z" fill="#D64646"/>
<path d="M17.583 0.990845H17.9238C18.4861 0.990845 18.9461 1.44819 18.9461 2.00718C18.9461 2.56616 18.4861 3.02351 17.9238 3.02351H17.583C17.0207 3.02351 16.5606 2.56616 16.5606 2.00718C16.5606 1.44819 17.0207 0.990845 17.583 0.990845Z" fill="#D64646"/>
<path d="M15.0271 5.04785H17.9238C18.4861 5.04785 18.9461 5.5052 18.9461 6.06418V6.07265C18.9461 6.63164 18.4861 7.08899 17.9238 7.08899H15.0271C14.4648 7.08899 14.0047 6.63164 14.0047 6.07265V6.06418C14.0047 5.5052 14.4648 5.04785 15.0271 5.04785Z" fill="#D64646"/>
<path d="M12.4712 9.12158H17.9238C18.4861 9.12158 18.9462 9.57893 18.9462 10.1379C18.9462 10.6969 18.4861 11.1543 17.9238 11.1543H12.4712C11.9089 11.1543 11.4488 10.6969 11.4488 10.1379C11.4488 9.57893 11.9089 9.12158 12.4712 9.12158Z" fill="#D64646"/>
<path d="M3.84065 1.21965L4.40295 2.93048C4.44555 3.06599 4.57334 3.15915 4.71818 3.15915H6.53288C6.7118 3.15915 6.85663 3.30313 6.85663 3.48099C6.85663 3.58263 6.80551 3.68426 6.72032 3.74355L5.2464 4.80223C5.12713 4.88692 5.08453 5.0309 5.12713 5.16641L5.68943 6.87724C5.74907 7.04663 5.64683 7.23296 5.47644 7.28377C5.3742 7.31765 5.27196 7.30071 5.18677 7.24143L3.72137 6.18275C3.61062 6.09805 3.44874 6.09805 3.33798 6.18275L1.86407 7.24143C1.71924 7.34306 1.51476 7.31765 1.40401 7.17367C1.34437 7.08898 1.32733 6.97887 1.36141 6.88571L1.92371 5.16641C1.96631 5.0309 1.91519 4.88692 1.80443 4.80223L0.33904 3.74355C0.194205 3.64191 0.160126 3.43865 0.262363 3.2862C0.322001 3.2015 0.424238 3.15068 0.526474 3.15068H2.34118C2.48601 3.15068 2.60529 3.05752 2.64789 2.92201L3.21019 1.21118C3.26983 1.04179 3.44874 0.948628 3.61914 0.999445C3.72989 1.04179 3.80657 1.11802 3.84065 1.21965Z" fill="#006586"/>
</svg>
