<?xml version="1.0" encoding="utf-8"?>
<!-- Generator: Adobe Illustrator 26.3.1, SVG Export Plug-In . SVG Version: 6.00 Build 0)  -->
<svg version="1.1" id="Layer_1" xmlns="http://www.w3.org/2000/svg" xmlns:xlink="http://www.w3.org/1999/xlink" x="0px" y="0px"
	 viewBox="0 0 26 28" style="enable-background:new 0 0 26 28;" xml:space="preserve">
<style type="text/css">
	.st0{fill:#EEEEEE;}
	.st1{fill:#666666;}
</style>
<g>
	<path class="st0" d="M5,7.5C5,6.1,6.1,5,7.5,5h11C19.9,5,21,6.1,21,7.5v9c0,3.6-2.9,6.5-6.5,6.5h-7C6.1,23,5,21.9,5,20.5V7.5z"/>
	<path class="st1" d="M20,16.5v-9C20,6.7,19.3,6,18.5,6h-11C6.7,6,6,6.7,6,7.5v13C6,21.3,6.7,22,7.5,22h7c0.8,0,1.5-0.7,1.5-1.5
		c0-1.4,1.1-2.5,2.5-2.5C19.3,18,20,17.3,20,16.5z M19.5,18.8c-0.3,0.1-0.6,0.2-1,0.2c-0.8,0-1.5,0.7-1.5,1.5c0,0.4-0.1,0.7-0.2,1
		C18,21,19,20,19.5,18.8z M5,7.5C5,6.1,6.1,5,7.5,5h11C19.9,5,21,6.1,21,7.5v9c0,3.6-2.9,6.5-6.5,6.5h-7C6.1,23,5,21.9,5,20.5V7.5z
		 M9.5,11C9.2,11,9,10.8,9,10.5S9.2,10,9.5,10h7c0.3,0,0.5,0.2,0.5,0.5S16.8,11,16.5,11H9.5z M9.5,14C9.2,14,9,13.8,9,13.5
		S9.2,13,9.5,13h7c0.3,0,0.5,0.2,0.5,0.5S16.8,14,16.5,14H9.5z M9.5,17C9.2,17,9,16.8,9,16.5S9.2,16,9.5,16h5c0.3,0,0.5,0.2,0.5,0.5
		S14.8,17,14.5,17H9.5z"/>
</g>
</svg>
