<svg width="79" height="30" viewBox="0 0 79 30" fill="none" xmlns="http://www.w3.org/2000/svg">
<rect x="0.5" y="0.5" width="78" height="29" rx="14.5" fill="#D64646" fill-opacity="0.1"/>
<rect x="0.5" y="0.5" width="78" height="29" rx="14.5" stroke="#D64646"/>
<path fill-rule="evenodd" clip-rule="evenodd" d="M21 14.9999C21 18.3136 18.3138 21 15 21C11.6863 21 9 18.3136 9 14.9999C9 11.6862 11.6863 9 15 9C18.3138 9 21 11.6862 21 14.9999" fill="#D64646"/>
<path d="M29.962 19V10.329H35.786V11.473H31.262V14.008H35.695V15.152H31.262V19H29.962ZM41.0336 19V18.311C40.5396 18.857 39.8246 19.156 38.9796 19.156C37.9396 19.156 36.7956 18.454 36.7956 17.076C36.7956 15.646 37.9266 15.022 38.9796 15.022C39.8246 15.022 40.5526 15.295 41.0336 15.854V14.814C41.0336 14.034 40.3966 13.566 39.4996 13.566C38.7846 13.566 38.1736 13.839 37.6146 14.398L37.1076 13.592C37.8096 12.903 38.6676 12.565 39.6816 12.565C41.0466 12.565 42.2036 13.163 42.2036 14.762V19H41.0336ZM41.0336 17.622V16.556C40.6826 16.088 40.0716 15.841 39.4216 15.841C38.5766 15.841 37.9786 16.348 37.9786 17.089C37.9786 17.83 38.5766 18.337 39.4216 18.337C40.0716 18.337 40.6826 18.09 41.0336 17.622ZM44.6506 11.668C44.2476 11.668 43.8966 11.343 43.8966 10.927C43.8966 10.511 44.2476 10.173 44.6506 10.173C45.0666 10.173 45.4046 10.511 45.4046 10.927C45.4046 11.343 45.0666 11.668 44.6506 11.668ZM44.0786 19V12.721H45.2486V19H44.0786ZM47.1128 19V10.329H48.2828V19H47.1128ZM49.7569 15.854C49.7569 14.034 51.0699 12.565 52.9029 12.565C54.7879 12.565 55.9579 14.034 55.9579 15.958V16.244H50.9919C51.0829 17.31 51.8629 18.194 53.1239 18.194C53.7869 18.194 54.5149 17.934 54.9829 17.453L55.5289 18.22C54.9049 18.831 54.0209 19.156 53.0069 19.156C51.1349 19.156 49.7569 17.83 49.7569 15.854ZM52.9029 13.527C51.6419 13.527 51.0439 14.541 50.9789 15.399H54.8139C54.7879 14.567 54.2289 13.527 52.9029 13.527ZM61.8934 19V18.103C61.4254 18.727 60.6714 19.156 59.8394 19.156C58.2014 19.156 57.0314 17.921 57.0314 15.867C57.0314 13.852 58.2014 12.565 59.8394 12.565C60.6454 12.565 61.3864 12.955 61.8934 13.631V10.329H63.0634V19H61.8934ZM61.8934 17.206V14.528C61.5684 14.021 60.8664 13.605 60.1514 13.605C58.9814 13.605 58.2534 14.554 58.2534 15.867C58.2534 17.167 58.9814 18.116 60.1514 18.116C60.8664 18.116 61.5684 17.713 61.8934 17.206Z" fill="white"/>
</svg>
