<svg width="117" height="30" viewBox="0 0 117 30" fill="none" xmlns="http://www.w3.org/2000/svg">
<rect x="0.5" y="0.5" width="116" height="29" rx="14.5" fill="#46B918" fill-opacity="0.1"/>
<rect x="0.5" y="0.5" width="116" height="29" rx="14.5" stroke="#46B918"/>
<path fill-rule="evenodd" clip-rule="evenodd" d="M21 14.9999C21 18.3136 18.3138 21 15 21C11.6863 21 9 18.3136 9 14.9999C9 11.6862 11.6863 9 15 9C18.3138 9 21 11.6862 21 14.9999" fill="#46B918"/>
<path d="M29.962 19V10.329H34.031C35.578 10.329 36.475 11.278 36.475 12.539C36.475 13.631 35.76 14.359 34.967 14.528C35.89 14.671 36.644 15.607 36.644 16.66C36.644 18.025 35.734 19 34.135 19H29.962ZM31.262 14.008H33.784C34.655 14.008 35.136 13.462 35.136 12.747C35.136 12.032 34.655 11.473 33.784 11.473H31.262V14.008ZM31.262 17.856H33.849C34.759 17.856 35.305 17.336 35.305 16.491C35.305 15.776 34.811 15.152 33.849 15.152H31.262V17.856ZM37.836 15.854C37.836 14.034 39.149 12.565 40.982 12.565C42.867 12.565 44.037 14.034 44.037 15.958V16.244H39.071C39.162 17.31 39.942 18.194 41.203 18.194C41.866 18.194 42.594 17.934 43.062 17.453L43.608 18.22C42.984 18.831 42.1 19.156 41.086 19.156C39.214 19.156 37.836 17.83 37.836 15.854ZM40.982 13.527C39.721 13.527 39.123 14.541 39.058 15.399H42.893C42.867 14.567 42.308 13.527 40.982 13.527ZM45.1105 15.854C45.1105 13.969 46.4105 12.565 48.3085 12.565C49.4915 12.565 50.2065 13.059 50.6615 13.67L49.8815 14.385C49.5045 13.852 48.9975 13.605 48.3605 13.605C47.1255 13.605 46.3325 14.554 46.3325 15.854C46.3325 17.154 47.1255 18.116 48.3605 18.116C48.9975 18.116 49.5045 17.856 49.8815 17.336L50.6615 18.051C50.2065 18.662 49.4915 19.156 48.3085 19.156C46.4105 19.156 45.1105 17.739 45.1105 15.854ZM55.8237 19V18.311C55.3297 18.857 54.6147 19.156 53.7697 19.156C52.7297 19.156 51.5857 18.454 51.5857 17.076C51.5857 15.646 52.7167 15.022 53.7697 15.022C54.6147 15.022 55.3427 15.295 55.8237 15.854V14.814C55.8237 14.034 55.1867 13.566 54.2897 13.566C53.5747 13.566 52.9637 13.839 52.4047 14.398L51.8977 13.592C52.5997 12.903 53.4577 12.565 54.4717 12.565C55.8367 12.565 56.9937 13.163 56.9937 14.762V19H55.8237ZM55.8237 17.622V16.556C55.4727 16.088 54.8617 15.841 54.2117 15.841C53.3667 15.841 52.7687 16.348 52.7687 17.089C52.7687 17.83 53.3667 18.337 54.2117 18.337C54.8617 18.337 55.4727 18.09 55.8237 17.622ZM66.4996 19V14.814C66.4996 14.086 66.1746 13.605 65.4076 13.605C64.7706 13.605 64.1466 14.047 63.8476 14.502V19H62.6776V14.814C62.6776 14.086 62.3656 13.605 61.5726 13.605C60.9616 13.605 60.3506 14.06 60.0386 14.515V19H58.8686V12.721H60.0386V13.605C60.2986 13.215 61.1306 12.565 62.0666 12.565C63.0156 12.565 63.5746 13.059 63.7696 13.735C64.1336 13.15 64.9656 12.565 65.8886 12.565C67.0456 12.565 67.6696 13.202 67.6696 14.463V19H66.4996ZM69.1427 15.854C69.1427 14.034 70.4557 12.565 72.2887 12.565C74.1737 12.565 75.3437 14.034 75.3437 15.958V16.244H70.3777C70.4687 17.31 71.2487 18.194 72.5097 18.194C73.1727 18.194 73.9007 17.934 74.3687 17.453L74.9147 18.22C74.2907 18.831 73.4067 19.156 72.3927 19.156C70.5207 19.156 69.1427 17.83 69.1427 15.854ZM72.2887 13.527C71.0277 13.527 70.4297 14.541 70.3647 15.399H74.1997C74.1737 14.567 73.6147 13.527 72.2887 13.527ZM80.1847 19V10.329H81.4847V17.856H85.4237V19H80.1847ZM90.5454 19V18.311C90.0514 18.857 89.3364 19.156 88.4914 19.156C87.4514 19.156 86.3074 18.454 86.3074 17.076C86.3074 15.646 87.4384 15.022 88.4914 15.022C89.3364 15.022 90.0644 15.295 90.5454 15.854V14.814C90.5454 14.034 89.9084 13.566 89.0114 13.566C88.2964 13.566 87.6854 13.839 87.1264 14.398L86.6194 13.592C87.3214 12.903 88.1794 12.565 89.1934 12.565C90.5584 12.565 91.7154 13.163 91.7154 14.762V19H90.5454ZM90.5454 17.622V16.556C90.1944 16.088 89.5834 15.841 88.9334 15.841C88.0884 15.841 87.4904 16.348 87.4904 17.089C87.4904 17.83 88.0884 18.337 88.9334 18.337C89.5834 18.337 90.1944 18.09 90.5454 17.622ZM99.0373 19L97.4903 14.177L95.9433 19H94.7343L92.7583 12.721H93.9803L95.4103 17.505L96.9833 12.721H97.9973L99.5703 17.505L101 12.721H102.222L100.246 19H99.0373Z" fill="#333333"/>
</svg>
