<svg width="138" height="30" viewBox="0 0 138 30" fill="none" xmlns="http://www.w3.org/2000/svg">
<rect x="0.5" y="0.5" width="137" height="29" rx="14.5" fill="#FFB45C" fill-opacity="0.1"/>
<rect x="0.5" y="0.5" width="137" height="29" rx="14.5" stroke="#FFB45C"/>
<path fill-rule="evenodd" clip-rule="evenodd" d="M21 14.9999C21 18.3136 18.3138 21 15 21C11.6863 21 9 18.3136 9 14.9999C9 11.6862 11.6863 9 15 9C18.3138 9 21 11.6862 21 14.9999" fill="#FFB45C"/>
<path d="M29.962 19V10.329H31.262V19H29.962ZM37.4113 19V14.983C37.4113 13.943 36.8783 13.605 36.0723 13.605C35.3443 13.605 34.6813 14.047 34.3433 14.515V19H33.1733V12.721H34.3433V13.605C34.7593 13.098 35.5913 12.565 36.5663 12.565C37.8923 12.565 38.5813 13.267 38.5813 14.593V19H37.4113ZM47.8946 19.156C45.4246 19.156 43.4486 17.336 43.4486 14.671C43.4486 12.006 45.4246 10.186 47.8946 10.186C49.5976 10.186 50.6636 11.005 51.3396 12.019L50.2346 12.604C49.7796 11.876 48.9216 11.343 47.8946 11.343C46.1396 11.343 44.7876 12.721 44.7876 14.671C44.7876 16.608 46.1396 17.999 47.8946 17.999C48.9216 17.999 49.7796 17.466 50.2346 16.738L51.3396 17.323C50.6506 18.337 49.5976 19.156 47.8946 19.156ZM55.3918 19.156C53.4418 19.156 52.2198 17.674 52.2198 15.854C52.2198 14.047 53.4418 12.565 55.3918 12.565C57.3548 12.565 58.5638 14.047 58.5638 15.854C58.5638 17.674 57.3548 19.156 55.3918 19.156ZM55.3918 18.116C56.6528 18.116 57.3418 17.05 57.3418 15.854C57.3418 14.671 56.6528 13.605 55.3918 13.605C54.1438 13.605 53.4418 14.671 53.4418 15.854C53.4418 17.05 54.1438 18.116 55.3918 18.116ZM64.2873 19V14.983C64.2873 13.943 63.7543 13.605 62.9483 13.605C62.2203 13.605 61.5573 14.047 61.2193 14.515V19H60.0493V12.721H61.2193V13.605C61.6353 13.098 62.4673 12.565 63.4423 12.565C64.7683 12.565 65.4573 13.267 65.4573 14.593V19H64.2873ZM66.765 18.181L67.324 17.323C67.753 17.791 68.585 18.22 69.43 18.22C70.314 18.22 70.782 17.856 70.782 17.323C70.782 16.699 70.067 16.491 69.261 16.309C68.195 16.062 66.947 15.776 66.947 14.424C66.947 13.423 67.805 12.565 69.339 12.565C70.418 12.565 71.198 12.955 71.731 13.462L71.211 14.281C70.847 13.839 70.145 13.514 69.352 13.514C68.559 13.514 68.065 13.826 68.065 14.333C68.065 14.879 68.741 15.061 69.521 15.243C70.613 15.49 71.913 15.789 71.913 17.232C71.913 18.311 71.029 19.156 69.378 19.156C68.325 19.156 67.402 18.831 66.765 18.181ZM73.9641 11.668C73.5611 11.668 73.2101 11.343 73.2101 10.927C73.2101 10.511 73.5611 10.173 73.9641 10.173C74.3801 10.173 74.7181 10.511 74.7181 10.927C74.7181 11.343 74.3801 11.668 73.9641 11.668ZM73.3921 19V12.721H74.5621V19H73.3921ZM80.8982 19V18.103C80.4302 18.727 79.6762 19.156 78.8442 19.156C77.2062 19.156 76.0362 17.921 76.0362 15.867C76.0362 13.852 77.2062 12.565 78.8442 12.565C79.6502 12.565 80.3912 12.955 80.8982 13.631V10.329H82.0682V19H80.8982ZM80.8982 17.206V14.528C80.5732 14.021 79.8712 13.605 79.1562 13.605C77.9862 13.605 77.2582 14.554 77.2582 15.867C77.2582 17.167 77.9862 18.116 79.1562 18.116C79.8712 18.116 80.5732 17.713 80.8982 17.206ZM83.5519 15.854C83.5519 14.034 84.8649 12.565 86.6979 12.565C88.5829 12.565 89.7529 14.034 89.7529 15.958V16.244H84.7869C84.8779 17.31 85.6579 18.194 86.9189 18.194C87.5819 18.194 88.3099 17.934 88.7779 17.453L89.3239 18.22C88.6999 18.831 87.8159 19.156 86.8019 19.156C84.9299 19.156 83.5519 17.83 83.5519 15.854ZM86.6979 13.527C85.4369 13.527 84.8389 14.541 84.7739 15.399H88.6089C88.5829 14.567 88.0239 13.527 86.6979 13.527ZM91.2163 19V12.721H92.3863V13.683C92.8673 13.059 93.6083 12.578 94.4403 12.578V13.761C94.3233 13.735 94.1933 13.722 94.0373 13.722C93.4523 13.722 92.6593 14.164 92.3863 14.632V19H91.2163ZM99.4829 19V18.311C98.9889 18.857 98.2739 19.156 97.4289 19.156C96.3889 19.156 95.2449 18.454 95.2449 17.076C95.2449 15.646 96.3759 15.022 97.4289 15.022C98.2739 15.022 99.0019 15.295 99.4829 15.854V14.814C99.4829 14.034 98.8459 13.566 97.9489 13.566C97.2339 13.566 96.6229 13.839 96.0639 14.398L95.5569 13.592C96.2589 12.903 97.1169 12.565 98.1309 12.565C99.4959 12.565 100.653 13.163 100.653 14.762V19H99.4829ZM99.4829 17.622V16.556C99.1319 16.088 98.5209 15.841 97.8709 15.841C97.0259 15.841 96.4279 16.348 96.4279 17.089C96.4279 17.83 97.0259 18.337 97.8709 18.337C98.5209 18.337 99.1319 18.09 99.4829 17.622ZM104.257 19.156C103.269 19.156 102.762 18.597 102.762 17.609V13.748H101.722V12.721H102.762V11.005H103.932V12.721H105.206V13.748H103.932V17.349C103.932 17.791 104.14 18.116 104.543 18.116C104.816 18.116 105.063 17.999 105.18 17.869L105.479 18.753C105.232 18.987 104.868 19.156 104.257 19.156ZM107.073 11.668C106.67 11.668 106.319 11.343 106.319 10.927C106.319 10.511 106.67 10.173 107.073 10.173C107.489 10.173 107.827 10.511 107.827 10.927C107.827 11.343 107.489 11.668 107.073 11.668ZM106.501 19V12.721H107.671V19H106.501ZM112.318 19.156C110.368 19.156 109.146 17.674 109.146 15.854C109.146 14.047 110.368 12.565 112.318 12.565C114.281 12.565 115.49 14.047 115.49 15.854C115.49 17.674 114.281 19.156 112.318 19.156ZM112.318 18.116C113.579 18.116 114.268 17.05 114.268 15.854C114.268 14.671 113.579 13.605 112.318 13.605C111.07 13.605 110.368 14.671 110.368 15.854C110.368 17.05 111.07 18.116 112.318 18.116ZM121.213 19V14.983C121.213 13.943 120.68 13.605 119.874 13.605C119.146 13.605 118.483 14.047 118.145 14.515V19H116.975V12.721H118.145V13.605C118.561 13.098 119.393 12.565 120.368 12.565C121.694 12.565 122.383 13.267 122.383 14.593V19H121.213Z" fill="#333333"/>
</svg>
