<svg width="85" height="30" viewBox="0 0 85 30" fill="none" xmlns="http://www.w3.org/2000/svg">
<rect x="0.5" y="0.5" width="84" height="29" rx="14.5" fill="#D64646" fill-opacity="0.1"/>
<rect x="0.5" y="0.5" width="84" height="29" rx="14.5" stroke="#D64646"/>
<path fill-rule="evenodd" clip-rule="evenodd" d="M21 14.9999C21 18.3136 18.3138 21 15 21C11.6863 21 9 18.3136 9 14.9999C9 11.6862 11.6863 9 15 9C18.3138 9 21 11.6862 21 14.9999" fill="#D64646"/>
<path d="M32.51 19L29.065 10.329H30.547L33.316 17.583L36.098 10.329H37.58L34.135 19H32.51ZM37.4298 15.854C37.4298 14.034 38.7428 12.565 40.5758 12.565C42.4608 12.565 43.6308 14.034 43.6308 15.958V16.244H38.6648C38.7558 17.31 39.5358 18.194 40.7968 18.194C41.4598 18.194 42.1878 17.934 42.6558 17.453L43.2018 18.22C42.5778 18.831 41.6938 19.156 40.6798 19.156C38.8078 19.156 37.4298 17.83 37.4298 15.854ZM40.5758 13.527C39.3148 13.527 38.7168 14.541 38.6518 15.399H42.4868C42.4608 14.567 41.9018 13.527 40.5758 13.527ZM46.8232 19.156C45.8352 19.156 45.3282 18.597 45.3282 17.609V13.748H44.2882V12.721H45.3282V11.005H46.4982V12.721H47.7722V13.748H46.4982V17.349C46.4982 17.791 46.7062 18.116 47.1092 18.116C47.3822 18.116 47.6292 17.999 47.7462 17.869L48.0452 18.753C47.7982 18.987 47.4342 19.156 46.8232 19.156ZM51.8498 19.156C49.8998 19.156 48.6778 17.674 48.6778 15.854C48.6778 14.047 49.8998 12.565 51.8498 12.565C53.8128 12.565 55.0218 14.047 55.0218 15.854C55.0218 17.674 53.8128 19.156 51.8498 19.156ZM51.8498 18.116C53.1108 18.116 53.7998 17.05 53.7998 15.854C53.7998 14.671 53.1108 13.605 51.8498 13.605C50.6018 13.605 49.8998 14.671 49.8998 15.854C49.8998 17.05 50.6018 18.116 51.8498 18.116ZM56.1173 15.854C56.1173 14.034 57.4303 12.565 59.2633 12.565C61.1483 12.565 62.3183 14.034 62.3183 15.958V16.244H57.3523C57.4433 17.31 58.2233 18.194 59.4843 18.194C60.1473 18.194 60.8753 17.934 61.3433 17.453L61.8893 18.22C61.2653 18.831 60.3813 19.156 59.3673 19.156C57.4953 19.156 56.1173 17.83 56.1173 15.854ZM59.2633 13.527C58.0023 13.527 57.4043 14.541 57.3393 15.399H61.1743C61.1483 14.567 60.5893 13.527 59.2633 13.527ZM68.2537 19V18.103C67.7857 18.727 67.0317 19.156 66.1997 19.156C64.5617 19.156 63.3917 17.921 63.3917 15.867C63.3917 13.852 64.5617 12.565 66.1997 12.565C67.0057 12.565 67.7467 12.955 68.2537 13.631V10.329H69.4237V19H68.2537ZM68.2537 17.206V14.528C67.9287 14.021 67.2267 13.605 66.5117 13.605C65.3417 13.605 64.6137 14.554 64.6137 15.867C64.6137 17.167 65.3417 18.116 66.5117 18.116C67.2267 18.116 67.9287 17.713 68.2537 17.206Z" fill="#333333"/>
</svg>
