<svg width="106" height="30" viewBox="0 0 106 30" fill="none" xmlns="http://www.w3.org/2000/svg">
<rect x="0.5" y="0.5" width="105" height="29" rx="14.5" fill="#C3B1E5" fill-opacity="0.1"/>
<rect x="0.5" y="0.5" width="105" height="29" rx="14.5" stroke="#C3B1E5"/>
<path fill-rule="evenodd" clip-rule="evenodd" d="M21 14.9999C21 18.3136 18.3138 21 15 21C11.6863 21 9 18.3136 9 14.9999C9 11.6862 11.6863 9 15 9C18.3138 9 21 11.6862 21 14.9999" fill="#C3B1E5"/>
<path d="M29.962 19V10.329H31.262V19H29.962ZM37.4113 19V14.983C37.4113 13.943 36.8783 13.605 36.0723 13.605C35.3443 13.605 34.6813 14.047 34.3433 14.515V19H33.1733V12.721H34.3433V13.605C34.7593 13.098 35.5913 12.565 36.5663 12.565C37.8923 12.565 38.5813 13.267 38.5813 14.593V19H37.4113ZM42.164 19.156C41.176 19.156 40.669 18.597 40.669 17.609V13.748H39.629V12.721H40.669V11.005H41.839V12.721H43.113V13.748H41.839V17.349C41.839 17.791 42.047 18.116 42.45 18.116C42.723 18.116 42.97 17.999 43.087 17.869L43.386 18.753C43.139 18.987 42.775 19.156 42.164 19.156ZM44.4087 19V12.721H45.5787V13.683C46.0597 13.059 46.8007 12.578 47.6327 12.578V13.761C47.5157 13.735 47.3857 13.722 47.2297 13.722C46.6447 13.722 45.8517 14.164 45.5787 14.632V19H44.4087ZM51.5832 19.156C49.6332 19.156 48.4112 17.674 48.4112 15.854C48.4112 14.047 49.6332 12.565 51.5832 12.565C53.5462 12.565 54.7552 14.047 54.7552 15.854C54.7552 17.674 53.5462 19.156 51.5832 19.156ZM51.5832 18.116C52.8442 18.116 53.5332 17.05 53.5332 15.854C53.5332 14.671 52.8442 13.605 51.5832 13.605C50.3352 13.605 49.6332 14.671 49.6332 15.854C49.6332 17.05 50.3352 18.116 51.5832 18.116ZM60.7127 19V18.103C60.2447 18.727 59.4907 19.156 58.6587 19.156C57.0207 19.156 55.8507 17.921 55.8507 15.867C55.8507 13.852 57.0207 12.565 58.6587 12.565C59.4647 12.565 60.2057 12.955 60.7127 13.631V10.329H61.8827V19H60.7127ZM60.7127 17.206V14.528C60.3877 14.021 59.6857 13.605 58.9707 13.605C57.8007 13.605 57.0727 14.554 57.0727 15.867C57.0727 17.167 57.8007 18.116 58.9707 18.116C59.6857 18.116 60.3877 17.713 60.7127 17.206ZM67.9943 19V18.142C67.5133 18.662 66.7203 19.156 65.7583 19.156C64.4193 19.156 63.7563 18.48 63.7563 17.154V12.721H64.9263V16.764C64.9263 17.804 65.4463 18.116 66.2523 18.116C66.9803 18.116 67.6433 17.7 67.9943 17.232V12.721H69.1643V19H67.9943ZM70.628 15.854C70.628 13.969 71.928 12.565 73.826 12.565C75.009 12.565 75.724 13.059 76.179 13.67L75.399 14.385C75.022 13.852 74.515 13.605 73.878 13.605C72.643 13.605 71.85 14.554 71.85 15.854C71.85 17.154 72.643 18.116 73.878 18.116C74.515 18.116 75.022 17.856 75.399 17.336L76.179 18.051C75.724 18.662 75.009 19.156 73.826 19.156C71.928 19.156 70.628 17.739 70.628 15.854ZM77.0773 15.854C77.0773 14.034 78.3903 12.565 80.2233 12.565C82.1083 12.565 83.2783 14.034 83.2783 15.958V16.244H78.3123C78.4033 17.31 79.1833 18.194 80.4443 18.194C81.1073 18.194 81.8353 17.934 82.3033 17.453L82.8493 18.22C82.2253 18.831 81.3413 19.156 80.3273 19.156C78.4553 19.156 77.0773 17.83 77.0773 15.854ZM80.2233 13.527C78.9623 13.527 78.3643 14.541 78.2993 15.399H82.1343C82.1083 14.567 81.5493 13.527 80.2233 13.527ZM89.2137 19V18.103C88.7457 18.727 87.9917 19.156 87.1597 19.156C85.5217 19.156 84.3517 17.921 84.3517 15.867C84.3517 13.852 85.5217 12.565 87.1597 12.565C87.9657 12.565 88.7067 12.955 89.2137 13.631V10.329H90.3837V19H89.2137ZM89.2137 17.206V14.528C88.8887 14.021 88.1867 13.605 87.4717 13.605C86.3017 13.605 85.5737 14.554 85.5737 15.867C85.5737 17.167 86.3017 18.116 87.4717 18.116C88.1867 18.116 88.8887 17.713 89.2137 17.206Z" fill="#333333"/>
</svg>
