<svg width="20" height="20" viewBox="0 0 20 20" fill="none" xmlns="http://www.w3.org/2000/svg">
<path fill-rule="evenodd" clip-rule="evenodd" d="M10 0C4.47581 0 0 4.47581 0 10C0 15.5242 4.47581 20 10 20C15.5242 20 20 15.5242 20 10C20 4.47581 15.5242 0 10 0V0Z" fill="#D64646"/>
<path fill-rule="evenodd" clip-rule="evenodd" d="M14.9036 12.625C15.0932 12.8145 15.0932 13.121 14.9036 13.3104L13.3069 14.9032C13.1173 15.0927 12.8109 15.0927 12.6214 14.9032L10.0004 12.258L7.37541 14.9032C7.18594 15.0927 6.87944 15.0927 6.68993 14.9032L5.09718 13.3064C4.90771 13.1169 4.90771 12.8105 5.09718 12.6209L7.74235 9.99996L5.09718 7.37496C4.90771 7.18548 4.90771 6.87899 5.09718 6.68947L6.69396 5.0927C6.88352 4.90318 7.18993 4.90318 7.37944 5.0927L10.0004 7.74189L12.6254 5.09673C12.8149 4.90726 13.1214 4.90726 13.3109 5.09673L14.9077 6.69351C15.0972 6.88306 15.0972 7.18947 14.9077 7.37899L12.2585 9.99996L14.9036 12.625Z" fill="white"/>
</svg>
