<?xml version="1.0" encoding="UTF-8"?>
<svg xmlns="http://www.w3.org/2000/svg" width="20" height="20" viewBox="0 0 20 20" fill="none">
  <path fill-rule="evenodd" clip-rule="evenodd" d="M20 9.99989C20 15.5227 15.523 20 10 20C4.47724 20 0 15.5227 0 9.99989C0 4.47706 4.47724 0 10 0C15.523 0 20 4.47706 20 9.99989" fill="#46B918"></path>
  <path fill-rule="evenodd" clip-rule="evenodd" d="M8.84329 15.295L16.2625 7.87569C16.5146 7.62359 16.5146 7.21519 16.2625 6.96309L15.3504 6.05072C15.0983 5.79885 14.6899 5.79885 14.4378 6.05072L8.38723 12.1016L5.56237 9.27645C5.31027 9.02481 4.90187 9.02481 4.64977 9.27645L3.73741 10.1891C3.48532 10.4409 3.48532 10.8496 3.73741 11.1014L7.93093 15.295C8.1828 15.5471 8.5912 15.5471 8.84329 15.295" fill="white"></path>
</svg>
